<svg width="86" height="40" viewBox="0 0 86 40" fill="none" xmlns="http://www.w3.org/2000/svg">
<path d="M0.242188 39V0.71875H5V34.2969H20.8047V39H0.242188ZM24.0859 39V11.6562H24.5781L28.8438 22.0469V39H24.0859ZM24.0859 3.72656V0.71875H27.9688L40.5469 31.1797L49.5156 10.8906H50.0625V21.5L42.3516 39H38.7422L24.0859 3.72656ZM52.7969 39V0.71875H57.5547V39H52.7969ZM61.2188 30.3594L65.5938 28.8281C65.8125 30.3594 66.3958 31.6172 67.3438 32.6016C68.3281 33.5859 69.2578 34.1875 70.1328 34.4062L71.3906 34.7344V39.1641C68.1823 39.1641 65.4844 37.7969 63.2969 35.0625C61.9479 33.349 61.2552 31.7812 61.2188 30.3594ZM61.6562 11.0547C61.6562 7.11719 63.3516 4.16406 66.7422 2.19531C68.4193 1.21094 69.9688 0.71875 71.3906 0.71875V5.20312C70.1146 5.34896 68.9115 6.02344 67.7812 7.22656C66.7604 8.35677 66.25 9.65104 66.25 11.1094C66.25 13.3333 67.8542 15.0104 71.0625 16.1406C71.8646 16.3958 73.0859 16.7422 74.7266 17.1797C76.4401 17.6536 77.6432 18.0182 78.3359 18.2734C81.6172 19.6224 83.7135 21.4635 84.625 23.7969C85.099 24.9635 85.3359 26.276 85.3359 27.7344C85.3359 30.9062 84.1146 33.6589 81.6719 35.9922C79.4479 38.1068 76.9323 39.1641 74.125 39.1641V34.7344C75.6198 34.6615 77.0599 33.9505 78.4453 32.6016C79.8307 31.1797 80.5417 29.5573 80.5781 27.7344C80.5781 25.1823 78.8099 23.3229 75.2734 22.1562C74.5078 21.901 73.3411 21.5911 71.7734 21.2266C70.0964 20.8255 68.9661 20.4974 68.3828 20.2422C65.2839 18.9661 63.2969 17.2891 62.4219 15.2109C61.9115 14.0078 61.6562 12.6224 61.6562 11.0547ZM74.125 5.20312V0.71875C77.2969 0.71875 79.9401 2.1224 82.0547 4.92969C83.112 6.35156 83.6953 7.6276 83.8047 8.75781L79.375 10.2344C78.8646 7.68229 77.4062 6.0599 75 5.36719C74.4167 5.25781 74.125 5.20312 74.125 5.20312Z" fill="url(#paint0_linear_1_3)"/>
<defs>
<linearGradient id="paint0_linear_1_3" x1="-2" y1="19.037" x2="57.4167" y2="19.037" gradientUnits="userSpaceOnUse">
<stop stop-color="#FF716D"/>
<stop offset="0.369792" stop-color="#F642E3"/>
<stop offset="0.541667" stop-color="#F341E0"/>
<stop offset="1" stop-color="#8A2FFE"/>
</linearGradient>
</defs>
</svg>
