<svg width="60" height="40" viewBox="0 0 60 40" fill="none" xmlns="http://www.w3.org/2000/svg">
<path d="M29.024 25.668H33.416V27H27.386V14.454H29.024V25.668ZM47.8815 14.544V27H46.2435V17.712L42.1035 27H40.9515L36.7935 17.694V27H35.1555V14.544H36.9195L41.5275 24.84L46.1355 14.544H47.8815ZM54.6374 27.126C53.8094 27.126 53.0654 26.982 52.4054 26.694C51.7574 26.394 51.2474 25.986 50.8754 25.47C50.5034 24.942 50.3114 24.336 50.2994 23.652H52.0454C52.1054 24.24 52.3454 24.738 52.7654 25.146C53.1974 25.542 53.8214 25.74 54.6374 25.74C55.4174 25.74 56.0294 25.548 56.4734 25.164C56.9294 24.768 57.1574 24.264 57.1574 23.652C57.1574 23.172 57.0254 22.782 56.7614 22.482C56.4974 22.182 56.1674 21.954 55.7714 21.798C55.3754 21.642 54.8414 21.474 54.1694 21.294C53.3414 21.078 52.6754 20.862 52.1714 20.646C51.6794 20.43 51.2534 20.094 50.8934 19.638C50.5454 19.17 50.3714 18.546 50.3714 17.766C50.3714 17.082 50.5454 16.476 50.8934 15.948C51.2414 15.42 51.7274 15.012 52.3514 14.724C52.9874 14.436 53.7134 14.292 54.5294 14.292C55.7054 14.292 56.6654 14.586 57.4094 15.174C58.1654 15.762 58.5914 16.542 58.6874 17.514H56.8874C56.8274 17.034 56.5754 16.614 56.1314 16.254C55.6874 15.882 55.0994 15.696 54.3674 15.696C53.6834 15.696 53.1254 15.876 52.6934 16.236C52.2614 16.584 52.0454 17.076 52.0454 17.712C52.0454 18.168 52.1714 18.54 52.4234 18.828C52.6874 19.116 53.0054 19.338 53.3774 19.494C53.7614 19.638 54.2954 19.806 54.9794 19.998C55.8074 20.226 56.4734 20.454 56.9774 20.682C57.4814 20.898 57.9134 21.24 58.2734 21.708C58.6334 22.164 58.8134 22.788 58.8134 23.58C58.8134 24.192 58.6514 24.768 58.3274 25.308C58.0034 25.848 57.5234 26.286 56.8874 26.622C56.2514 26.958 55.5014 27.126 54.6374 27.126Z" fill="black"/>
<path d="M17.5 0H2.5C1.11927 0 0 1.67891 0 3.75V40L10 31.25L20 40V3.75C20 1.67891 18.8807 0 17.5 0ZM17.5 33.4711L10 26.9086L2.5 33.4711V4.21875C2.5 4.09443 2.53292 3.9752 2.59153 3.88729C2.65013 3.79939 2.72962 3.75 2.8125 3.75H17.1875C17.3601 3.75 17.5 3.95961 17.5 4.21844V33.4711Z" fill="black"/>
</svg>
